<svg width="48" height="48" viewBox="0 0 48 48" fill="none" xmlns="http://www.w3.org/2000/svg">
<path fill-rule="evenodd" clip-rule="evenodd" d="M31.5 10.5C31.5 8.51088 30.7098 6.60322 29.3033 5.1967C27.8968 3.79018 25.9891 3 24 3C22.0109 3 20.1032 3.79018 18.6967 5.1967C17.2902 6.60322 16.5 8.51088 16.5 10.5V12H31.5V10.5ZM34.5 10.5V12H45V42C45 43.5913 44.3679 45.1174 43.2426 46.2426C42.1174 47.3679 40.5913 48 39 48H9C7.4087 48 5.88258 47.3679 4.75736 46.2426C3.63214 45.1174 3 43.5913 3 42V12H13.5V10.5C13.5 7.71523 14.6062 5.04451 16.5754 3.07538C18.5445 1.10625 21.2152 0 24 0C26.7848 0 29.4555 1.10625 31.4246 3.07538C33.3938 5.04451 34.5 7.71523 34.5 10.5ZM42 42V15H6V42C6 42.7956 6.31607 43.5587 6.87868 44.1213C7.44129 44.6839 8.20435 45 9 45H39C39.7956 45 40.5587 44.6839 41.1213 44.1213C41.6839 43.5587 42 42.7956 42 42ZM24 23.979C28.992 18.846 41.475 27.828 24 39.375C6.525 27.825 19.008 18.846 24 23.979Z" fill="#FC8019"/>
</svg>
