<svg width="22" height="22" viewBox="0 0 23 20" fill="none" xmlns="http://www.w3.org/2000/svg">
<g opacity="0.75">
<path d="M9.40123 13.4567L12.3642 14.4444C12.3642 14.4444 19.7716 12.9629 20.7593 12.9629C21.7469 12.9629 21.7469 13.9505 20.7593 14.9382C19.7716 15.9259 16.3148 18.8888 13.3519 18.8888C10.3889 18.8888 8.41358 17.4073 6.43827 17.4073H1.5" stroke="#FC8019" stroke-width="1.5" stroke-linecap="round" stroke-linejoin="round"/>
<path d="M1.5 11.4815C2.48765 10.4938 4.46296 9.01232 6.43827 9.01232C8.41358 9.01232 13.1049 10.9876 13.8457 11.9753C14.5864 12.9629 12.3642 14.4444 12.3642 14.4444M7.42593 6.04936V2.09874C7.42593 1.8368 7.52998 1.58558 7.7152 1.40036C7.90042 1.21514 8.15164 1.11108 8.41358 1.11108H20.2654C20.5274 1.11108 20.7786 1.21514 20.9638 1.40036C21.149 1.58558 21.2531 1.8368 21.2531 2.09874V9.99997" stroke="#FC8019" stroke-width="1.5" stroke-linecap="round" stroke-linejoin="round"/>
<path d="M11.8702 1.11108H16.8085V5.55553H11.8702V1.11108Z" stroke="#FC8019" stroke-width="1.5" stroke-linecap="round" stroke-linejoin="round"/>
</g>
</svg>
