<svg width="282" height="325" viewBox="0 0 282 325" fill="none" xmlns="http://www.w3.org/2000/svg">
<g opacity="0.5">
<mask id="path-1-inside-1_1_1007" fill="white">
<path fill-rule="evenodd" clip-rule="evenodd" d="M59.3401 130.408L337.266 -7.95722e-06L423.921 184.68L145.996 315.088L135.132 320.186L134.835 319.554C86.434 335.704 32.5325 313.399 10.3277 266.076C-11.877 218.753 5.41743 163.042 48.7732 136.138L48.4765 135.506L59.3401 130.408Z"/>
</mask>
<path d="M337.266 -7.95722e-06L347.224 -4.67261L342.551 -14.6309L332.593 -9.95826L337.266 -7.95722e-06ZM423.921 184.68L428.594 194.639L438.552 189.966L433.88 180.008L423.921 184.68ZM135.132 320.186L125.174 324.858L129.846 334.817L139.805 330.144L135.132 320.186ZM134.835 319.554L144.794 314.881L140.637 306.022L131.354 309.119L134.835 319.554ZM48.7732 136.138L54.5731 145.485L62.8884 140.325L58.7314 131.465L48.7732 136.138ZM48.4765 135.506L43.8039 125.547L33.8457 130.22L38.5183 140.178L48.4765 135.506ZM64.0127 140.366L341.938 9.95824L332.593 -9.95826L54.6674 120.45L64.0127 140.366ZM327.308 4.6726L413.963 189.353L433.88 180.008L347.224 -4.67261L327.308 4.6726ZM419.249 174.722L141.323 305.13L150.668 325.047L428.594 194.639L419.249 174.722ZM141.323 305.13L130.46 310.228L139.805 330.144L150.668 325.047L141.323 305.13ZM145.09 315.513L144.794 314.881L124.877 324.226L125.174 324.858L145.09 315.513ZM131.354 309.119C88.183 323.524 40.0928 303.616 20.286 261.404L0.369466 270.749C24.9722 323.182 84.685 347.884 138.317 329.988L131.354 309.119ZM20.286 261.404C0.479154 219.191 15.9029 169.481 54.5731 145.485L42.9732 126.791C-5.068 156.602 -24.2332 218.315 0.369466 270.749L20.286 261.404ZM58.7314 131.465L58.4348 130.833L38.5183 140.178L38.8149 140.81L58.7314 131.465ZM53.1491 145.464L64.0127 140.366L54.6674 120.45L43.8039 125.547L53.1491 145.464Z" fill="#FC8019" mask="url(#path-1-inside-1_1_1007)"/>
</g>
</svg>
